<svg xmlns="http://www.w3.org/2000/svg" width="16" height="16.583" viewBox="0 0 16 16.583">
  <g id="Group_13599" data-name="Group 13599" transform="translate(-0.001 -0.001)">
    <g id="Form">
      <path id="Subtraction_13" data-name="Subtraction 13" d="M9,14h-.72a4.181,4.181,0,0,1,.345-3.7l1.082.7H9v3ZM7.225,14H1a1,1,0,0,1-1-1V4a.926.926,0,0,1,.289-.641L3.37.271A1.019,1.019,0,0,1,4,0h6a1,1,0,0,1,1,1V6.632L9.064,8.612a.994.994,0,0,0-.286.7A.971.971,0,0,0,8.626,9.3a.992.992,0,0,0-.217.023,1.009,1.009,0,0,0-.633.449A5.143,5.143,0,0,0,7,12.493,5.08,5.08,0,0,0,7.225,14ZM11,10.562v0L9.779,9.312,11,8.061v2.5Z" transform="translate(0.001 0.001)" fill="#fff"/>
      <path id="Subtraction_6" data-name="Subtraction 6" d="M9,14H8.279a4.079,4.079,0,0,1-.248-1H9v1ZM7.223,14H1a1,1,0,0,1-1-1V4a.935.935,0,0,1,.291-.642L3.371.272A1.015,1.015,0,0,1,4,0h6a1,1,0,0,1,1,1V6.63L10,7.653V1H5V4A1,1,0,0,1,4,5H1v8H7.026a5.073,5.073,0,0,0,.2,1ZM4,1,1,4H4ZM9,12H8.03A4.151,4.151,0,0,1,8.622,10.3L9,10.54V12ZM7.024,12H2V10H7.638a5.087,5.087,0,0,0-.614,2ZM11,10.56v0L10,9.539V9.083L11,8.06v2.5ZM8.825,9H6V8H9V8.68A1.024,1.024,0,0,0,8.826,9ZM9,7H6V6H9V7Z" transform="translate(0.001 0.001)" fill="#4e5758"/>
      <rect id="Green" width="3" height="3" transform="translate(2.001 6.001)" fill="#a7aa36"/>
    </g>
    <path id="appbar.reset" d="M28.194,19.7l-2.667-2.727,2.667-2.727v1.843a4.087,4.087,0,1,1-4.444,4.066,4.14,4.14,0,0,1,.625-2.2l1.313.854a2.53,2.53,0,0,0-.382,1.342A2.445,2.445,0,1,0,28.194,17.7Z" transform="translate(-15.749 -7.665)" fill="#a7aa36"/>
  </g>
</svg>
