<?xml version="1.0" encoding="utf-8"?>
<!-- Generator: Adobe Illustrator 19.2.1, SVG Export Plug-In . SVG Version: 6.00 Build 0)  -->
<svg version="1.1" id="Layer_1" xmlns="http://www.w3.org/2000/svg" xmlns:xlink="http://www.w3.org/1999/xlink" x="0px" y="0px"
	 viewBox="0 0 16 16" style="enable-background:new 0 0 16 16;" xml:space="preserve">
<style type="text/css">
	.st0{fill:#B21E27;}
</style>
<path class="st0" d="M15.6,1.8c0.4-0.4,0.4-0.7,0-1.2l0,0c-0.4-0.4-0.7-0.4-1.2,0L0.9,12.4c-0.4,0.4-0.8,0.8-0.3,1.4l1.8,1.8
	c0.6,0.6,1,0.1,1.5-0.3L15.6,1.8"/>
<path class="st0" d="M14.4,15.4c0.4,0.4,0.7,0.4,1.2,0l0,0c0.4-0.4,0.4-0.7,0-1.2L3.8,0.6C3.4,0.2,2.9-0.2,2.4,0.3L0.6,2.1
	C0,2.7,0.5,3.1,0.9,3.6L14.4,15.4"/>
</svg>
