<svg xmlns="http://www.w3.org/2000/svg" xmlns:xlink="http://www.w3.org/1999/xlink" width="400" height="204" viewBox="0 0 400 204"><defs><style>.a,.m{fill:none;}.b,.e,.f,.g,.q{fill:#fff;}.b,.m{stroke:#707070;}.b,.f,.m,.q,.r{stroke-width:2px;}.c,.h,.u{fill:#f0f0f0;}.d{fill:#ccc;}.f{stroke:#e3e3e3;stroke-dasharray:4;}.i{opacity:0.1;}.j{fill:#f4f4f4;}.k{fill:rgba(0,0,0,0.1);}.l,.r{fill:#009cff;}.m{stroke-linecap:round;}.n,.z{fill:#707070;}.o{fill:url(#a);}.p{fill:url(#b);}.q{stroke:#e0e0e0;}.r{stroke:#007edb;}.s,.y{fill:#e0e0e0;}.t{fill:rgba(0,0,0,0.15);}.u{opacity:0.75;}.v{fill:#1a9cfc;}.w{fill:#f2f2f2;}.x,.y,.z{stroke:none;}</style><linearGradient id="a" x1="0.5" x2="0.5" y2="0.649" gradientUnits="objectBoundingBox"><stop offset="0" stop-color="#fff" stop-opacity="0"/><stop offset="1" stop-color="#fff"/></linearGradient><linearGradient id="b" x1="0.5" y1="0.11" x2="0.5" y2="0.641" gradientUnits="objectBoundingBox"><stop offset="0" stop-color="#707070" stop-opacity="0"/><stop offset="1" stop-color="#707070"/></linearGradient></defs><rect class="a" width="400" height="199.61" transform="translate(0 4.39)"/><rect class="a" width="360" height="159.61" transform="translate(20 24.39)"/><g class="b" transform="translate(80 24.39)"><rect class="x" width="230" height="159.61" rx="10"/><rect class="a" x="1" y="1" width="228" height="157.61" rx="9"/></g><path class="c" d="M8,0H218a8,8,0,0,1,8,8V24a0,0,0,0,1,0,0H0a0,0,0,0,1,0,0V8A8,8,0,0,1,8,0Z" transform="translate(82 26.39)"/><g transform="translate(90 35.321)"><circle class="d" cx="3" cy="3" r="3"/></g><rect class="e" width="178" height="14" rx="4" transform="translate(125 31.326)"/><rect class="c" width="39" height="4" rx="2" transform="translate(130 36.39)"/><g class="f" transform="translate(218 112.087)"><rect class="x" width="80" height="60" rx="5"/><rect class="a" x="1" y="1" width="78" height="58" rx="4"/></g><g transform="translate(100 35.321)"><circle class="d" cx="3" cy="3" r="3"/><g transform="translate(10)"><circle class="d" cx="3" cy="3" r="3"/></g></g><g transform="translate(218.001 57.252)"><g class="g" transform="translate(34.551 10.184) rotate(-11)"><path class="x" d="M 17.32472038269043 31.99959945678711 L 15.67413997650146 31.99959945678711 C 15.31581974029541 31.99959945678711 15.02431011199951 31.70808982849121 15.02431011199951 31.34976959228516 L 15.02431011199951 31.32208061218262 L 15.02277946472168 31.29442977905273 L 14.91734981536865 29.39214897155762 L 14.87440013885498 28.61729049682617 L 14.11312961578369 28.46653938293457 C 12.54008960723877 28.15503883361816 11.0637092590332 27.54314994812012 9.725019454956055 26.64788055419922 L 9.080239295959473 26.2166690826416 L 8.502229690551758 26.73394966125488 L 7.081839561462402 28.0051097869873 L 7.061209678649902 28.02358055114746 L 7.041619777679443 28.04315948486328 C 6.917369842529297 28.16740989685059 6.758619785308838 28.23308944702148 6.582529544830322 28.23308944702148 C 6.406219959259033 28.23308944702148 6.247129917144775 28.16727066040039 6.122469902038574 28.04274940490723 L 4.955689907073975 26.87596893310547 C 4.831609725952148 26.75189971923828 4.766029834747314 26.59292984008789 4.766029834747314 26.41623878479004 C 4.766029834747314 26.23954963684082 4.831609725952148 26.08057975769043 4.955689907073975 25.95651054382324 L 4.975279808044434 25.93692016601562 L 4.993749618530273 25.91626930236816 L 6.264899730682373 24.49587059020996 L 6.78210973739624 23.91794013977051 L 6.351039886474609 23.27318954467773 C 5.456389904022217 21.93507957458496 4.844729900360107 20.45888900756836 4.533039569854736 18.88563919067383 L 4.382239818572998 18.12444877624512 L 3.607449769973755 18.08151054382324 L 1.705169677734375 17.9760799407959 L 1.677519679069519 17.97455024719238 L 1.649829745292664 17.97455024719238 C 1.291509747505188 17.97455024719238 0.9999997019767761 17.68304061889648 0.9999997019767761 17.32472038269043 L 0.9999997019767761 15.67413997650146 C 0.9999997019767761 15.31581974029541 1.291509747505188 15.02431011199951 1.649829745292664 15.02431011199951 L 1.677519679069519 15.02431011199951 L 1.705169677734375 15.02277946472168 L 3.607449769973755 14.91734981536865 L 4.382309913635254 14.87440013885498 L 4.533059597015381 14.11312961578369 C 4.844689846038818 12.5394401550293 5.456279754638672 11.06363010406494 6.350839614868164 9.726709365844727 L 6.782189846038818 9.082049369812012 L 6.265069961547852 8.50391960144043 L 4.993919849395752 7.082779884338379 L 4.975359916687012 7.062029838562012 L 4.955679893493652 7.04233980178833 C 4.831069946289062 6.917739868164062 4.765209674835205 6.75879955291748 4.765209674835205 6.582709789276123 C 4.765209674835205 6.40684986114502 4.830929756164551 6.248249530792236 4.95527982711792 6.124049663543701 L 6.122889518737793 4.956419944763184 C 6.247499942779541 4.831819534301758 6.406439781188965 4.765949726104736 6.582529544830322 4.765949726104736 C 6.758389949798584 4.765949726104736 6.916999816894531 4.831679821014404 7.041219711303711 4.956029891967773 L 7.060989856719971 4.975829601287842 L 7.081839561462402 4.994489669799805 L 8.502229690551758 6.265649795532227 L 9.080239295959473 6.78292989730835 L 9.725019454956055 6.351719856262207 C 11.0637092590332 5.456449508666992 12.54008007049561 4.844559669494629 14.11312961578369 4.533059597015381 L 14.87440013885498 4.382309913635254 L 14.91734981536865 3.607449769973755 L 15.02277946472168 1.705169677734375 L 15.02431011199951 1.677519679069519 L 15.02431011199951 1.649829745292664 C 15.02431011199951 1.291509747505188 15.31581974029541 0.9999997019767761 15.67413997650146 0.9999997019767761 L 17.32472038269043 0.9999997019767761 C 17.68304061889648 0.9999997019767761 17.97455024719238 1.291509747505188 17.97455024719238 1.649829745292664 L 17.97455024719238 1.677519679069519 L 17.9760799407959 1.705169677734375 L 18.08151054382324 3.607449769973755 L 18.12446022033691 4.382309913635254 L 18.88571929931641 4.533059597015381 C 20.45913887023926 4.844649791717529 21.93527030944824 5.456279754638672 23.27309036254883 6.350969791412354 L 23.91786003112793 6.782179832458496 L 24.49587059020996 6.264899730682373 L 25.91626930236816 4.993749618530273 L 25.93671035766602 4.975459575653076 L 25.95611000061035 4.956079959869385 C 26.08111953735352 4.831209659576416 26.24032974243164 4.765209674835205 26.41651916503906 4.765209674835205 C 26.59247970581055 4.765209674835205 26.7513599395752 4.831079959869385 26.87598037719727 4.955699920654297 L 28.04316902160645 6.122889518737793 C 28.29614067077637 6.376139640808105 28.29631996154785 6.788469791412354 28.04316902160645 7.041619777679443 L 28.02348899841309 7.061299800872803 L 28.00494003295898 7.082039833068848 L 26.73377990722656 8.503179550170898 L 26.21685028076172 9.081099510192871 L 26.6478099822998 9.725669860839844 C 27.54265975952148 11.0640697479248 28.15431976318359 12.54022979736328 28.46579933166504 14.11314010620117 L 28.61655044555664 14.87442016601562 L 29.39142990112305 14.91734981536865 L 31.29444885253906 15.02277946472168 L 31.32209014892578 15.02431011199951 L 31.34976959228516 15.02431011199951 C 31.70808982849121 15.02431011199951 31.99959945678711 15.31581974029541 31.99959945678711 15.67413997650146 L 31.99959945678711 17.32472038269043 C 31.99959945678711 17.68304061889648 31.70808982849121 17.97455024719238 31.34976959228516 17.97455024719238 L 31.32209014892578 17.97455024719238 L 31.29444885253906 17.9760799407959 L 29.39142990112305 18.08151054382324 L 28.61655044555664 18.12443923950195 L 28.46579933166504 18.88571929931641 C 28.15431976318359 20.4586296081543 27.54265975952148 21.93478012084961 26.6478099822998 23.27318954467773 L 26.21685028076172 23.91775894165039 L 26.73377990722656 24.49567985534668 L 28.00494003295898 25.91683006286621 L 28.02350044250488 25.93758010864258 L 28.04318046569824 25.9572696685791 C 28.16715049743652 26.08123016357422 28.23267936706543 26.24007034301758 28.23267936706543 26.4166202545166 C 28.23267936706543 26.59314918518066 28.16715049743652 26.75199890136719 28.04316902160645 26.87596893310547 L 26.87596893310547 28.04316902160645 C 26.75119018554688 28.16795921325684 26.5921688079834 28.23391914367676 26.41610908508301 28.23393058776855 C 26.2402400970459 28.23394012451172 26.0813102722168 28.16797065734863 25.95649909973145 28.04315948486328 L 25.93691062927246 28.02358055114746 L 25.91627883911133 28.0051097869873 L 24.49588012695312 26.73394966125488 L 23.9177188873291 26.21653938293457 L 23.27289009094238 26.64801025390625 C 21.93512916564941 27.54314041137695 20.45907020568848 28.15497970581055 18.88572883605957 28.46653938293457 L 18.12446022033691 28.61729049682617 L 18.08151054382324 29.39214897155762 L 17.9760799407959 31.29442977905273 L 17.97455024719238 31.32208061218262 L 17.97455024719238 31.34976959228516 C 17.97455024719238 31.70808982849121 17.68304061889648 31.99959945678711 17.32472038269043 31.99959945678711 Z M 16.49979972839355 9.724649429321289 C 12.76396942138672 9.724649429321289 9.724649429321289 12.76396942138672 9.724649429321289 16.49979972839355 C 9.724649429321289 20.23563003540039 12.76396942138672 23.27495002746582 16.49979972839355 23.27495002746582 C 20.23521995544434 23.27495002746582 23.27420997619629 20.23563003540039 23.27420997619629 16.49979972839355 C 23.27420997619629 12.76396942138672 20.23521995544434 9.724649429321289 16.49979972839355 9.724649429321289 Z"/><path class="y" d="M 16.99088287353516 30.99959945678711 L 17.08304023742676 29.3368091583252 L 17.1689395904541 27.78709030151367 L 18.69148063659668 27.4855899810791 C 20.13484001159668 27.19976997375488 21.48913955688477 26.63833999633789 22.71677017211914 25.81690979003906 L 24.00643920898438 24.95396041870117 L 25.16275024414062 25.98877906799316 L 26.40469932556152 27.10023880004883 L 27.09992980957031 26.40501022338867 L 25.98843002319336 25.1623592376709 L 24.95458984375 24.00652885437012 L 25.81649971008301 22.71738052368164 C 26.63776969909668 21.48902893066406 27.1990795135498 20.1345100402832 27.48484992980957 18.69146919250488 L 27.7863597869873 17.16889953613281 L 29.33612060546875 17.08304023742676 L 30.99959945678711 16.99088096618652 L 30.99959945678711 16.00797843933105 L 29.33612060546875 15.91582012176514 L 27.7863597869873 15.82995986938477 L 27.48484992980957 14.30738925933838 C 27.1990795135498 12.86433982849121 26.63776969909668 11.5098295211792 25.81649971008301 10.28147983551025 L 24.95458030700684 8.992329597473145 L 25.98843955993652 7.836499691009521 L 27.09993743896484 6.593859672546387 L 26.40468978881836 5.898618221282959 L 25.16273880004883 7.010069847106934 L 24.00672912597656 8.044619560241699 L 22.7171802520752 7.182219505310059 C 21.48942947387695 6.36113977432251 20.13498878479004 5.799869537353516 18.69145965576172 5.514009952545166 L 17.16893005371094 5.212499618530273 L 17.08304023742676 3.662789821624756 L 16.99088287353516 1.999999761581421 L 16.00797653198242 1.999999761581421 L 15.91582012176514 3.662789821624756 L 15.82991981506348 5.212509632110596 L 14.30737972259521 5.514009952545166 C 12.86423969268799 5.799789905548096 11.50953960418701 6.36130952835083 10.28092956542969 7.182969570159912 L 8.99137020111084 8.045379638671875 L 7.835349559783936 7.010809898376465 L 6.59381628036499 5.899714946746826 L 5.898933887481689 6.594603538513184 L 7.010419845581055 7.837239742279053 L 8.044650077819824 8.993499755859375 L 7.181949615478516 10.28280925750732 C 6.361079692840576 11.50961971282959 5.799909591674805 12.86367988586426 5.514009952545166 14.30738925933838 L 5.212509632110596 15.82992935180664 L 3.662789821624756 15.91582012176514 L 1.999999761581421 16.00797653198242 L 1.999999761581421 16.99088287353516 L 3.662789821624756 17.08304023742676 L 5.212369918823242 17.16893005371094 L 5.513979911804199 18.69129943847656 C 5.799939632415771 20.13472938537598 6.361269950866699 21.48929977416992 7.182349681854248 22.7173900604248 L 8.044489860534668 24.00687026977539 L 7.010069847106934 25.16273880004883 L 5.898614406585693 26.40469551086426 L 6.593810081481934 27.09988975524902 L 7.835349559783936 25.98879051208496 L 8.99137020111084 24.95421981811523 L 10.28092956542969 25.81662940979004 C 11.50953960418701 26.63829040527344 12.86423969268799 27.19981002807617 14.30737972259521 27.4855899810791 L 15.82991981506348 27.78709030151367 L 15.91582012176514 29.3368091583252 L 16.00797653198242 30.99959945678711 L 16.99088287353516 30.99959945678711 M 16.49979972839355 8.724649429321289 C 20.78661918640137 8.724649429321289 24.27420997619629 12.21257019042969 24.27420997619629 16.49979972839355 C 24.27420997619629 20.78702926635742 20.78661918640137 24.27495002746582 16.49979972839355 24.27495002746582 C 12.21257019042969 24.27495002746582 8.724649429321289 20.78702926635742 8.724649429321289 16.49979972839355 C 8.724649429321289 12.21257019042969 12.21257019042969 8.724649429321289 16.49979972839355 8.724649429321289 M 17.32472038269043 32.99959945678711 L 15.67413997650146 32.99959945678711 C 14.76441955566406 32.99959945678711 14.02431011199951 32.25949096679688 14.02431011199951 31.34976959228516 L 13.91887950897217 29.44748878479004 C 12.21570014953613 29.11021995544434 10.61742973327637 28.44771003723145 9.169109344482422 27.4791202545166 L 7.748719692230225 28.75028038024902 C 7.437379837036133 29.06160926818848 7.023209571838379 29.23308944702148 6.582529544830322 29.23308944702148 C 6.141839504241943 29.23308944702148 5.727489948272705 29.06161880493164 5.415779590606689 28.75028038024902 L 4.248579502105713 27.58308029174805 C 3.937399625778198 27.27190017700195 3.766029834747314 26.85750961303711 3.766029834747314 26.41623878479004 C 3.766029834747314 25.97496032714844 3.937399625778198 25.56057929992676 4.248579502105713 25.24939918518066 L 5.519729614257812 23.82900047302246 C 4.551379680633545 22.38064956665039 3.889409780502319 20.78252029418945 3.552109718322754 19.07997894287109 L 1.649829745292664 18.97455024719238 C 0.7401297092437744 18.97455024719238 -2.716064386731887e-07 18.23443031311035 -2.716064386731887e-07 17.32472038269043 L -2.716064386731887e-07 15.67413997650146 C -2.716064386731887e-07 14.76441955566406 0.7401197552680969 14.02431011199951 1.649829745292664 14.02431011199951 L 3.552109718322754 13.91887950897217 C 3.889529705047607 12.21496963500977 4.5517897605896 10.61719989776611 5.519729614257812 9.170599937438965 L 4.248579502105713 7.749459743499756 C 3.936879634857178 7.437769889831543 3.765209674835205 7.023399829864502 3.765209674835205 6.582709789276123 C 3.765209674835205 6.142029762268066 3.936879634857178 5.727869510650635 4.248579502105713 5.416529655456543 L 5.415779590606689 4.249319553375244 C 5.727489948272705 3.937619686126709 6.141839504241943 3.765949726104736 6.582529544830322 3.765949726104736 C 7.023209571838379 3.765949726104736 7.437369823455811 3.937619686126709 7.748719692230225 4.249319553375244 L 9.169109344482422 5.520479679107666 C 10.61806964874268 4.551459789276123 12.21645927429199 3.889229774475098 13.91887950897217 3.552109718322754 L 14.02431011199951 1.649829745292664 C 14.02431011199951 0.7401297092437744 14.76441955566406 -2.716064386731887e-07 15.67413997650146 -2.716064386731887e-07 L 17.32472038269043 -2.716064386731887e-07 C 18.23443031311035 -2.716064386731887e-07 18.97455024719238 0.7401197552680969 18.97455024719238 1.649829745292664 L 19.07997894287109 3.552109718322754 C 20.78350067138672 3.889459609985352 22.38152885437012 4.551709651947021 23.82900047302246 5.519729614257812 L 25.24939918518066 4.248579502105713 C 25.56144905090332 3.936879634857178 25.97595024108887 3.765209674835205 26.41651916503906 3.765209674835205 C 26.85708999633789 3.765209674835205 27.27136993408203 3.936879634857178 27.58308029174805 4.248579502105713 L 28.75028038024902 5.415779590606689 C 29.39309883117676 6.05933952331543 29.39309883117676 7.105889797210693 28.75028038024902 7.748719692230225 L 27.4791202545166 9.169859886169434 C 28.44767951965332 10.61850929260254 29.10965919494629 12.21665000915527 29.44675064086914 13.91887950897217 L 31.34976959228516 14.02431011199951 C 32.25946807861328 14.02431011199951 32.99959945678711 14.76441955566406 32.99959945678711 15.67413997650146 L 32.99959945678711 17.32472038269043 C 32.99959945678711 18.23443031311035 32.25949096679688 18.97455024719238 31.34976959228516 18.97455024719238 L 29.44675064086914 19.07997894287109 C 29.10951042175293 20.7829704284668 28.44725036621094 22.38098907470703 27.4791202545166 23.82900047302246 L 28.75028038024902 25.25015068054199 C 29.06134033203125 25.56119918823242 29.23266983032227 25.9754695892334 29.23267936706543 26.41659927368164 C 29.23267936706543 26.85774040222168 29.06135940551758 27.27199935913086 28.75028038024902 27.58308029174805 L 27.58308029174805 28.75028038024902 C 27.27120971679688 29.06214904785156 26.8568000793457 29.23390960693359 26.41616058349609 29.23393058776855 C 25.97566032409668 29.23394966125488 25.56130981445312 29.06217956542969 25.24939918518066 28.75028038024902 L 23.82900047302246 27.4791202545166 C 22.38090896606445 28.44807052612305 20.78276062011719 29.11030006408691 19.07997894287109 29.44748878479004 L 18.97455024719238 31.34976959228516 C 18.97455024719238 32.25946807861328 18.23443031311035 32.99959945678711 17.32472038269043 32.99959945678711 Z M 16.49979972839355 10.72464942932129 C 13.31536960601807 10.72464942932129 10.72464942932129 13.31536960601807 10.72464942932129 16.49979972839355 C 10.72464942932129 19.68422889709473 13.31536960601807 22.27495002746582 16.49979972839355 22.27495002746582 C 19.68381881713867 22.27495002746582 22.27420997619629 19.68422889709473 22.27420997619629 16.49979972839355 C 22.27420997619629 13.31536960601807 19.68381881713867 10.72464942932129 16.49979972839355 10.72464942932129 Z"/></g><g class="h" transform="translate(0 0)"><path class="x" d="M 20.99970054626465 38.99959945678711 L 18.99900054931641 38.99959945678711 C 18.44771003723145 38.99959945678711 17.99919891357422 38.55109024047852 17.99919891357422 37.99980163574219 L 17.99919891357422 37.97211074829102 L 17.9976692199707 37.9444580078125 L 17.86986923217773 35.6386604309082 L 17.82691955566406 34.86380004882812 L 17.06564903259277 34.71305084228516 C 15.13136959075928 34.33002090454102 13.31600952148438 33.5776481628418 11.67000961303711 32.47686004638672 L 11.02522945404053 32.04565048217773 L 10.44722938537598 32.56293106079102 L 8.725529670715332 34.10372924804688 L 8.704889297485352 34.12220001220703 L 8.685299873352051 34.14178085327148 C 8.496779441833496 34.33029937744141 8.245889663696289 34.43412017822266 7.978839874267578 34.43412017822266 C 7.711569786071777 34.43412017822266 7.46028995513916 34.33015823364258 7.271289825439453 34.14138031005859 L 5.85690975189209 32.72698974609375 C 5.668599605560303 32.53868103027344 5.564889907836914 32.28750991821289 5.564889907836914 32.01974868774414 C 5.564889907836914 31.75198936462402 5.668599605560303 31.50082015991211 5.85690975189209 31.31250953674316 L 5.876499652862549 31.29291915893555 L 5.894969940185547 31.27227020263672 L 7.435769557952881 29.55056953430176 L 7.952979564666748 28.9726390838623 L 7.521909713745117 28.32789039611816 C 6.42186975479126 26.68257904052734 5.669779777526855 24.86746025085449 5.286539554595947 22.93296051025391 L 5.135729789733887 22.17177963256836 L 4.360939502716064 22.12882995605469 L 2.055139780044556 22.00102996826172 L 2.02748966217041 21.9995002746582 L 1.999799728393555 21.9995002746582 C 1.448509693145752 21.9995002746582 0.9999997019767761 21.55098915100098 0.9999997019767761 20.99970054626465 L 0.9999997019767761 18.99900054931641 C 0.9999997019767761 18.44771003723145 1.448509693145752 17.99919891357422 1.999799728393555 17.99919891357422 L 2.02748966217041 17.99919891357422 L 2.055139780044556 17.9976692199707 L 4.360939502716064 17.86986923217773 L 5.135799884796143 17.82691955566406 L 5.28654956817627 17.06564903259277 C 5.669749736785889 15.13056945800781 6.421759605407715 13.31588935852051 7.52170991897583 11.67200946807861 L 7.953059673309326 11.0273494720459 L 7.435939788818359 10.44921970367432 L 5.895139694213867 8.726619720458984 L 5.876579761505127 8.705869674682617 L 5.856899738311768 8.686180114746094 C 5.667959690093994 8.497249603271484 5.563899517059326 8.246119499206543 5.563899517059326 7.97905969619751 C 5.563899517059326 7.71222972869873 5.667819499969482 7.461479663848877 5.856499671936035 7.273009777069092 L 7.27170991897583 5.857809543609619 C 7.460659503936768 5.668859958648682 7.711789608001709 5.564799785614014 7.978839874267578 5.564799785614014 C 8.245669364929199 5.564799785614014 8.496419906616211 5.66871976852417 8.684889793395996 5.857399940490723 L 8.704669952392578 5.877209663391113 L 8.725529670715332 5.895869731903076 L 10.44722938537598 7.436669826507568 L 11.02523994445801 7.953949928283691 L 11.67000961303711 7.522739887237549 C 13.31599998474121 6.421949863433838 15.13136005401611 5.669589519500732 17.06564903259277 5.28654956817627 L 17.82691955566406 5.135799884796143 L 17.86986923217773 4.360939502716064 L 17.9976692199707 2.055139780044556 L 17.99919891357422 2.02748966217041 L 17.99919891357422 1.999799728393555 C 17.99919891357422 1.448509693145752 18.44771003723145 0.9999997019767761 18.99900054931641 0.9999997019767761 L 20.99970054626465 0.9999997019767761 C 21.55098915100098 0.9999997019767761 21.9995002746582 1.448509693145752 21.9995002746582 1.999799728393555 L 21.9995002746582 2.02748966217041 L 22.00102996826172 2.055139780044556 L 22.12882995605469 4.360939502716064 L 22.17177963256836 5.135799884796143 L 22.93305015563965 5.28654956817627 C 24.86775016784668 5.669669628143311 26.68280029296875 6.421729564666748 28.32778930664062 7.521839618682861 L 28.97257041931152 7.953049659729004 L 29.55056953430176 7.435769557952881 L 31.27227020263672 5.894969940185547 L 31.29270935058594 5.876689910888672 L 31.31209945678711 5.857309818267822 C 31.50152969360352 5.668099880218506 31.75296020507812 5.563899517059326 32.02008819580078 5.563899517059326 C 32.2869987487793 5.563899517059326 32.53804016113281 5.667959690093994 32.72698974609375 5.85690975189209 L 34.14178848266602 7.27170991897583 C 34.53112030029297 7.661479949951172 34.53129959106445 8.29578971862793 34.14178848266602 8.68528938293457 L 34.12210845947266 8.70496940612793 L 34.10356140136719 8.725719451904297 L 32.56275939941406 10.44831943511963 L 32.04582977294922 11.02622985839844 L 32.47679138183594 11.67080974578857 C 33.57706069946289 13.3164701461792 34.32915115356445 15.13155937194824 34.71215057373047 17.06564903259277 L 34.86289978027344 17.82694053649902 L 35.63777923583984 17.86986923217773 L 37.94448089599609 17.9976692199707 L 37.97211837768555 17.99919891357422 L 37.99980163574219 17.99919891357422 C 38.55109024047852 17.99919891357422 38.99959945678711 18.44771003723145 38.99959945678711 18.99900054931641 L 38.99959945678711 20.99970054626465 C 38.99959945678711 21.55098915100098 38.55109024047852 21.9995002746582 37.99980163574219 21.9995002746582 L 37.97211837768555 21.9995002746582 L 37.94448089599609 22.00102996826172 L 35.63777923583984 22.12882995605469 L 34.86289978027344 22.17176055908203 L 34.71215057373047 22.93305015563965 C 34.32915115356445 24.86713981628418 33.57706832885742 26.68222999572754 32.47679138183594 28.32789039611816 L 32.04582977294922 28.97246932983398 L 32.56275939941406 29.55037879943848 L 34.10356140136719 31.27297973632812 L 34.12210845947266 31.29372978210449 L 34.14178848266602 31.31340980529785 C 34.32997894287109 31.50158882141113 34.43360900878906 31.75259971618652 34.43362045288086 32.02021026611328 C 34.43362045288086 32.28778839111328 34.32997894287109 32.53881072998047 34.14178848266602 32.72698974609375 L 32.72698974609375 34.14178848266602 C 32.53783798217773 34.33094787597656 32.28662109375 34.43513107299805 32.01961135864258 34.43513870239258 C 31.75280952453613 34.43515014648438 31.50168991088867 34.33097076416016 31.3125 34.14178085327148 L 31.29290962219238 34.12220001220703 L 31.27227020263672 34.10372924804688 L 29.55056953430176 32.56293106079102 L 28.97241973876953 32.0455207824707 L 28.32758903503418 32.47698974609375 C 26.68267059326172 33.57762908935547 24.86768913269043 34.32994842529297 22.93305015563965 34.71305084228516 L 22.17177963256836 34.86378860473633 L 22.12882995605469 35.6386604309082 L 22.00102996826172 37.9444580078125 L 21.9995002746582 37.97211074829102 L 21.9995002746582 37.99980163574219 C 21.9995002746582 38.55109024047852 21.55098915100098 38.99959945678711 20.99970054626465 38.99959945678711 Z M 19.99979972839355 11.99959945678711 C 15.58846950531006 11.99959945678711 11.99959945678711 15.58846950531006 11.99959945678711 19.99979972839355 C 11.99959945678711 24.41112899780273 15.58846950531006 28 19.99979972839355 28 C 24.41062927246094 28 27.99909973144531 24.41112899780273 27.99909973144531 19.99979972839355 C 27.99909973144531 15.58846950531006 24.41062927246094 11.99959945678711 19.99979972839355 11.99959945678711 Z"/><path class="z" d="M 20.99842071533203 37.99959945678711 C 20.99884605407715 37.99929809570312 20.99921035766602 37.99907684326172 20.99941825866699 37.99907684326172 C 20.99944877624512 37.99907684326172 20.99947547912598 37.99908065795898 20.9995002746582 37.99909210205078 L 20.9995002746582 37.94441986083984 L 21.00255966186523 37.88911819458008 L 21.1303596496582 35.58332061767578 L 21.21625900268555 34.03358840942383 L 22.73880004882812 33.73210144042969 C 24.54345893859863 33.37474060058594 26.23669052124023 32.67282867431641 27.77148056030273 31.6458797454834 L 29.0611400604248 30.78294944763184 L 30.21744918823242 31.8177604675293 L 31.93914985656738 33.35855865478516 L 31.98408889770508 33.39878082275391 L 32.01994323730469 33.43463516235352 L 33.43361663818359 32.0207633972168 C 33.43362045288086 32.02058792114258 33.43362045288086 32.02041244506836 33.43362045288086 32.02022933959961 C 33.43362045288086 32.01995468139648 33.43361663818359 32.01968765258789 33.43361282348633 32.01943588256836 L 33.39532089233398 31.98114967346191 L 33.35821151733398 31.93965911865234 L 31.81740951538086 30.21706008911133 L 30.7835693359375 29.06122970581055 L 31.64547920227051 27.7720890045166 C 32.67218017578125 26.23646926879883 33.37390899658203 24.54302978515625 33.731201171875 22.73879051208496 L 34.03269958496094 21.21623039245605 L 35.58245849609375 21.1303596496582 L 37.88916015625 21.00255966186523 L 37.94123077392578 21.00086975097656 L 37.99658966064453 21.00086975097656 C 37.99755096435547 21.00032043457031 37.99900817871094 20.99897575378418 37.99951934814453 20.99897575378418 C 37.99954986572266 20.99897575378418 37.99957656860352 20.99898147583008 37.99959945678711 20.99899291992188 L 38.00096893310547 19.00222015380859 C 38.00038909912109 19.00119400024414 37.99890899658203 18.99961280822754 37.99909210205078 18.99919891357422 L 37.94443893432617 18.99919891357422 L 37.88916015625 18.99613952636719 L 35.58245849609375 18.86833953857422 L 34.03271102905273 18.78248023986816 L 33.731201171875 17.25991058349609 C 33.37390899658203 15.45566940307617 32.67216873168945 13.76222991943359 31.64547920227051 12.22661018371582 L 30.7835693359375 10.93746948242188 L 31.81740951538086 9.78164005279541 L 33.35821151733398 8.059040069580078 L 33.39619064331055 8.016630172729492 L 33.43345260620117 7.979367733001709 C 33.43358612060547 7.978742122650146 33.43376159667969 7.978281497955322 33.43405151367188 7.978281497955322 C 33.43409729003906 7.978281497955322 33.43414688110352 7.978293418884277 33.43419647216797 7.978317260742188 L 32.01958847045898 6.564056396484375 C 32.01934051513672 6.564292907714844 32.01908493041992 6.56454610824585 32.0188102722168 6.564819812774658 L 31.98000907897949 6.603569507598877 L 31.93914985656738 6.640139579772949 L 30.21744918823242 8.180939674377441 L 29.06142997741699 9.215489387512207 L 27.77189064025879 8.353089332580566 C 26.23696899414062 7.326589584350586 24.5435905456543 6.624899864196777 22.73879051208496 6.267499923706055 L 21.21625900268555 5.965999603271484 L 21.1303596496582 4.416279792785645 L 21.00255966186523 2.110479831695557 L 21.00086975097656 2.058389663696289 L 21.00086975097656 2.003009796142578 C 21.00028800964355 2.001991271972656 20.99880790710449 2.000410318374634 20.99899101257324 1.999999284744263 L 19.00222015380859 1.998629689216614 C 19.00125312805176 1.999178171157837 18.99979019165039 2.000523328781128 18.99928092956543 2.000523328781128 C 18.9992504119873 2.000523328781128 18.99922370910645 2.000517606735229 18.99919891357422 2.000507116317749 L 18.99919891357422 2.055179834365845 L 18.99613952636719 2.110479831695557 L 18.86833953857422 4.416279792785645 L 18.78244018554688 5.965999603271484 L 17.2598991394043 6.267499923706055 C 15.45551013946533 6.624819755554199 13.7618293762207 7.326809883117676 12.22591972351074 8.35398006439209 L 10.93636989593506 9.216400146484375 L 9.780349731445312 8.181839942932129 L 8.058650016784668 6.641039848327637 L 8.014060020446777 6.601099491119385 L 7.978357791900635 6.565361499786377 L 6.564319610595703 7.979399681091309 L 6.60336971282959 8.018439292907715 L 6.64048957824707 8.059939384460449 L 8.181289672851562 9.782539367675781 L 9.215519905090332 10.93879985809326 L 8.352819442749023 12.22811985015869 C 7.326559543609619 13.76186943054199 6.624959945678711 15.45481014251709 6.267499923706055 17.25991058349609 L 5.965999603271484 18.78244018554688 L 4.416279792785645 18.86833953857422 L 2.110479831695557 18.99613952636719 L 2.058389663696289 18.99782943725586 L 2.003009796142578 18.99782943725586 C 2.002049922943115 18.99837875366211 2.000590324401855 18.99972343444824 2.000081300735474 18.99972343444824 C 2.000050067901611 18.99972343444824 2.000022888183594 18.99971771240234 1.999999284744263 18.99970626831055 L 1.998629689216614 20.99647903442383 C 1.999211549758911 20.99750518798828 2.000689744949341 20.99908828735352 2.000507831573486 20.9995002746582 L 2.055179834365845 20.9995002746582 L 2.110479831695557 21.00255966186523 L 4.416279792785645 21.1303596496582 L 5.965869903564453 21.21624946594238 L 6.267469882965088 22.7386302947998 C 6.624999523162842 24.54330062866211 7.326749801635742 26.2367992401123 8.353219985961914 27.7720890045166 L 9.215359687805176 29.06158065795898 L 8.180939674377441 30.21744918823242 L 6.640139579772949 31.93914985656738 L 6.601039886474609 31.98278999328613 L 6.564895153045654 32.01893615722656 C 6.564891815185547 32.01919555664062 6.564889907836914 32.01946640014648 6.564889907836914 32.01974868774414 C 6.564889907836914 32.02011108398438 6.564892768859863 32.02045440673828 6.564898014068604 32.02077865600586 L 7.978664398193359 33.4342155456543 L 8.017369270324707 33.39550018310547 L 8.058650016784668 33.35855865478516 L 9.780349731445312 31.8177604675293 L 10.93636989593506 30.78319931030273 L 12.22591972351074 31.64560890197754 C 13.76184940338135 32.67279052734375 15.4555196762085 33.37479019165039 17.2598991394043 33.73210144042969 L 18.78244018554688 34.03358840942383 L 18.86833953857422 35.58332061767578 L 18.99613952636719 37.88911819458008 L 18.99782943725586 37.94120788574219 L 18.99782943725586 37.99658966064453 C 18.99841117858887 37.99760818481445 18.9998893737793 37.99918746948242 18.99970817565918 37.99959945678711 L 20.99842071533203 37.99959945678711 M 19.99979972839355 10.99959945678711 C 24.9620304107666 10.99959945678711 28.99909973144531 15.03706932067871 28.99909973144531 19.99979972839355 C 28.99909973144531 24.9625301361084 24.9620304107666 29 19.99979972839355 29 C 15.03706932067871 29 10.99959945678711 24.9625301361084 10.99959945678711 19.99979972839355 C 10.99959945678711 15.03706932067871 15.03706932067871 10.99959945678711 19.99979972839355 10.99959945678711 M 20.99970054626465 39.99959945678711 L 18.99900054931641 39.99959945678711 C 17.89630889892578 39.99959945678711 16.99919891357422 39.10248947143555 16.99919891357422 37.99980163574219 L 16.87139892578125 35.69400024414062 C 14.80694007873535 35.28519058227539 12.86963939666748 34.48215103149414 11.11409950256348 33.30809783935547 L 9.392399787902832 34.84889984130859 C 9.015019416809082 35.22626876831055 8.512999534606934 35.43412017822266 7.978839874267578 35.43412017822266 C 7.444669723510742 35.43412017822266 6.942419528961182 35.22628021240234 6.564599514007568 34.84889984130859 L 5.149799823760986 33.43410110473633 C 4.772619724273682 33.05691909790039 4.564889907836914 32.55463027954102 4.564889907836914 32.01974868774414 C 4.564889907836914 31.4848690032959 4.772619724273682 30.98258018493652 5.149799823760986 30.60540008544922 L 6.690599918365479 28.88369941711426 C 5.516839504241943 27.12812042236328 4.714439868927002 25.19097900390625 4.305599689483643 23.12730026245117 L 1.999799728393555 22.9995002746582 C 0.8971297144889832 22.9995002746582 -2.716064386731887e-07 22.10239028930664 -2.716064386731887e-07 20.99970054626465 L -2.716064386731887e-07 18.99900054931641 C -2.716064386731887e-07 17.89630889892578 0.8971097469329834 16.99919891357422 1.999799728393555 16.99919891357422 L 4.305599689483643 16.87139892578125 C 4.714589595794678 14.80605983734131 5.517329692840576 12.86935997009277 6.690599918365479 11.11590003967285 L 5.149799823760986 9.39330005645752 C 4.771989822387695 9.015500068664551 4.563899517059326 8.513229370117188 4.563899517059326 7.97905969619751 C 4.563899517059326 7.444899559020996 4.771979808807373 6.94288969039917 5.149799823760986 6.565499782562256 L 6.564599514007568 5.150699615478516 C 6.942419528961182 4.772879600524902 7.444669723510742 4.564799785614014 7.978839874267578 4.564799785614014 C 8.512999534606934 4.564799785614014 9.015009880065918 4.772879600524902 9.392399787902832 5.150699615478516 L 11.11409950256348 6.691499710083008 C 12.87040996551514 5.516929626464844 14.80785942077637 4.714229583740234 16.87139892578125 4.305599689483643 L 16.99919891357422 1.999799728393555 C 16.99919891357422 0.8971297144889832 17.89630889892578 -2.716064386731887e-07 18.99900054931641 -2.716064386731887e-07 L 20.99970054626465 -2.716064386731887e-07 C 22.10239028930664 -2.716064386731887e-07 22.9995002746582 0.8971097469329834 22.9995002746582 1.999799728393555 L 23.12730026245117 4.305599689483643 C 25.19218063354492 4.714499950408936 27.12917900085449 5.517239570617676 28.88369941711426 6.690599918365479 L 30.60540008544922 5.149799823760986 C 30.98364067077637 4.771989822387695 31.48607063293457 4.563899517059326 32.02008819580078 4.563899517059326 C 32.55411148071289 4.563899517059326 33.05627822875977 4.771979808807373 33.43410110473633 5.149799823760986 L 34.84889984130859 6.564599514007568 C 35.62807846069336 7.344669818878174 35.62807846069336 8.613219261169434 34.84889984130859 9.392399787902832 L 33.30809783935547 11.11499977111816 C 34.48210906982422 12.87094974517822 35.28451156616211 14.80808925628662 35.69309997558594 16.87139892578125 L 37.99980163574219 16.99919891357422 C 39.10247039794922 16.99919891357422 39.99959945678711 17.89630889892578 39.99959945678711 18.99900054931641 L 39.99959945678711 20.99970054626465 C 39.99959945678711 22.10239028930664 39.10248947143555 22.9995002746582 37.99980163574219 22.9995002746582 L 35.69309997558594 23.12730026245117 C 35.28432846069336 25.19153022766113 34.48159027099609 27.12853050231934 33.30809783935547 28.88369941711426 L 34.84889984130859 30.60630035400391 C 35.2259407043457 30.98333930969238 35.43360900878906 31.4854793548584 35.43362045288086 32.02019119262695 C 35.43362045288086 32.55490112304688 35.22595977783203 33.05704116821289 34.84889984130859 33.43410110473633 L 33.43410110473633 34.84889984130859 C 33.05607986450195 35.22692108154297 32.55376052856445 35.43511962890625 32.01964950561523 35.43513870239258 C 31.48571968078613 35.43516159057617 30.98346900939941 35.22695922851562 30.60540008544922 34.84889984130859 L 28.88369941711426 33.30809783935547 C 27.1284294128418 34.48257827758789 25.19128036499023 35.2852897644043 23.12730026245117 35.69400024414062 L 22.9995002746582 37.99980163574219 C 22.9995002746582 39.10247039794922 22.10239028930664 39.99959945678711 20.99970054626465 39.99959945678711 Z M 19.99979972839355 12.99959945678711 C 16.13987922668457 12.99959945678711 12.99959945678711 16.13987922668457 12.99959945678711 19.99979972839355 C 12.99959945678711 23.85972023010254 16.13987922668457 27 19.99979972839355 27 C 23.85923004150391 27 26.99909973144531 23.85972023010254 26.99909973144531 19.99979972839355 C 26.99909973144531 16.13987922668457 23.85923004150391 12.99959945678711 19.99979972839355 12.99959945678711 Z"/></g></g><g transform="translate(239 136.114)"><rect class="c" width="39" height="4" rx="2"/><g transform="translate(3 8)"><rect class="c" width="17" height="4" rx="2"/><rect class="c" width="11" height="4" rx="2" transform="translate(21)"/></g></g><path class="i" d="M73,60H7a7.008,7.008,0,0,1-7-7V7A7.008,7.008,0,0,1,7,0H73a7.008,7.008,0,0,1,7,7V53A7.008,7.008,0,0,1,73,60ZM71,7a2,2,0,1,0,2,2A2,2,0,0,0,71,7ZM9,7a2,2,0,1,0,2,2A2,2,0,0,0,9,7Z" transform="translate(250 88.151)"/><g transform="translate(248 33.248)"><g class="j" transform="translate(0 53)"><path class="x" d="M 74.99970245361328 59.00030517578125 L 5.000405311584473 59.00030517578125 C 2.794571876525879 59.00030517578125 1.000005125999451 57.20573806762695 1.000005125999451 54.99990463256836 L 1.000005125999451 5.000406265258789 C 1.000005125999451 2.794572830200195 2.794571876525879 1.000006198883057 5.000405311584473 1.000006198883057 L 74.99970245361328 1.000006198883057 C 77.20553588867188 1.000006198883057 79.00010681152344 2.794572830200195 79.00010681152344 5.000406265258789 L 79.00010681152344 54.99990463256836 C 79.00010681152344 57.20573806762695 77.20553588867188 59.00030517578125 74.99970245361328 59.00030517578125 Z M 71.00010681152344 6.000206470489502 C 69.34602355957031 6.000206470489502 68.00032806396484 7.345906257629395 68.00032806396484 9.000006675720215 C 68.00032806396484 10.65409469604492 69.34602355957031 11.99979496002197 71.00010681152344 11.99979496002197 C 72.65420532226562 11.99979496002197 73.99990844726562 10.65409469604492 73.99990844726562 9.000006675720215 C 73.99990844726562 7.345906257629395 72.65420532226562 6.000206470489502 71.00010681152344 6.000206470489502 Z M 9.000004768371582 6.000206470489502 C 7.345905303955078 6.000206470489502 6.000205039978027 7.345906257629395 6.000205039978027 9.000006675720215 C 6.000205039978027 10.65409469604492 7.345905303955078 11.99979496002197 9.000004768371582 11.99979496002197 C 10.6541051864624 11.99979496002197 11.99980545043945 10.65409469604492 11.99980545043945 9.000006675720215 C 11.99980545043945 7.345906257629395 10.6541051864624 6.000206470489502 9.000004768371582 6.000206470489502 Z"/><path class="z" d="M 74.99971008300781 58.00030517578125 C 76.65412902832031 58.00030517578125 78.00009918212891 56.65432739257812 78.00009918212891 54.99990463256836 L 78.00009918212891 5.000397682189941 C 78.00009918212891 3.345974206924438 76.65412902832031 1.999997735023499 74.99971008300781 1.999997735023499 L 5.000402450561523 1.999997735023499 C 3.345978975296021 1.999997735023499 2.00000262260437 3.345974206924438 2.00000262260437 5.000397682189941 L 2.00000262260437 54.99990463256836 C 2.00000262260437 56.65432739257812 3.345978975296021 58.00030517578125 5.000402450561523 58.00030517578125 L 74.99971008300781 58.00030517578125 M 71.00009918212891 5.000197887420654 C 73.20558929443359 5.000197887420654 74.99989318847656 6.794503688812256 74.99989318847656 8.999998092651367 C 74.99989318847656 11.20549201965332 73.20558929443359 12.99979782104492 71.00009918212891 12.99979782104492 C 68.79461669921875 12.99979782104492 67.00032043457031 11.20549201965332 67.00032043457031 8.999998092651367 C 67.00032043457031 6.794503688812256 68.79461669921875 5.000197887420654 71.00009918212891 5.000197887420654 M 9.000002861022949 5.000197887420654 C 11.2054967880249 5.000197887420654 12.9998025894165 6.794503688812256 12.9998025894165 8.999998092651367 C 12.9998025894165 11.20549201965332 11.2054967880249 12.99979782104492 9.000002861022949 12.99979782104492 C 6.794508457183838 12.99979782104492 5.000202655792236 11.20549201965332 5.000202655792236 8.999998092651367 C 5.000202655792236 6.794503688812256 6.794508457183838 5.000197887420654 9.000002861022949 5.000197887420654 M 74.99971008300781 60.00030517578125 L 5.000402450561523 60.00030517578125 C 2.243167161941528 60.00030517578125 2.532240841901512e-06 57.75712585449219 2.532240841901512e-06 54.99990463256836 L 2.532240841901512e-06 5.000397682189941 C 2.532240841901512e-06 2.243174314498901 2.243167161941528 -2.26063457375858e-06 5.000402450561523 -2.26063457375858e-06 L 74.99971008300781 -2.26063457375858e-06 C 77.75693511962891 -2.26063457375858e-06 80.00009918212891 2.243174314498901 80.00009918212891 5.000397682189941 L 80.00009918212891 54.99990463256836 C 80.00009918212891 57.75712585449219 77.75693511962891 60.00030517578125 74.99971008300781 60.00030517578125 Z M 71.00009918212891 7.000197887420654 C 69.89742279052734 7.000197887420654 69.00032043457031 7.897315502166748 69.00032043457031 8.999998092651367 C 69.00032043457031 10.10269165039062 69.89742279052734 10.99979782104492 71.00009918212891 10.99979782104492 C 72.10279083251953 10.99979782104492 72.99989318847656 10.10269165039062 72.99989318847656 8.999998092651367 C 72.99989318847656 7.897315502166748 72.10279083251953 7.000197887420654 71.00009918212891 7.000197887420654 Z M 9.000002861022949 7.000197887420654 C 7.897308349609375 7.000197887420654 7.000202655792236 7.897315502166748 7.000202655792236 8.999998092651367 C 7.000202655792236 10.10269165039062 7.897308349609375 10.99979782104492 9.000002861022949 10.99979782104492 C 10.10269641876221 10.99979782104492 10.9998025894165 10.10269165039062 10.9998025894165 8.999998092651367 C 10.9998025894165 7.897315502166748 10.10269641876221 7.000197887420654 9.000002861022949 7.000197887420654 Z"/></g><path class="k" d="M-12.158-13.582a2.952,2.952,0,0,0-2.578,1.354A6.536,6.536,0,0,0-15.662-8.5q0,4.945,3.762,4.945a7.7,7.7,0,0,0,2.2-.316,22.042,22.042,0,0,0,2.145-.762V-.715A11.868,11.868,0,0,1-12.4.234a7.674,7.674,0,0,1-5.947-2.25q-2.068-2.25-2.068-6.5a10.376,10.376,0,0,1,1-4.676,7.169,7.169,0,0,1,2.883-3.1,8.706,8.706,0,0,1,4.424-1.084A12.187,12.187,0,0,1-6.8-16.172l-1.418,3.645a15.942,15.942,0,0,0-1.9-.75A6.635,6.635,0,0,0-12.158-13.582ZM6.99-5.2a5.054,5.054,0,0,1-.809,2.83A5.3,5.3,0,0,1,3.85-.451,8.644,8.644,0,0,1,.275.234,14.46,14.46,0,0,1-2.6-.006,10.659,10.659,0,0,1-5.01-.844V-4.969A13.786,13.786,0,0,0-2.256-3.908a10.262,10.262,0,0,0,2.625.381,2.55,2.55,0,0,0,1.512-.357,1.1,1.1,0,0,0,.48-.92,1.012,1.012,0,0,0-.193-.615,2.252,2.252,0,0,0-.621-.533q-.428-.27-2.279-1.1A10.935,10.935,0,0,1-3.246-8.531a4.533,4.533,0,0,1-1.242-1.641,5.446,5.446,0,0,1-.4-2.191A4.392,4.392,0,0,1-3.17-16.055a7.593,7.593,0,0,1,4.734-1.324,13.285,13.285,0,0,1,5.426,1.23L5.572-12.574a10.275,10.275,0,0,0-4.148-1.1,2.162,2.162,0,0,0-1.312.316.957.957,0,0,0-.41.785,1.134,1.134,0,0,0,.521.9,19.881,19.881,0,0,0,2.83,1.453A7.828,7.828,0,0,1,6.129-8.08,4.645,4.645,0,0,1,6.99-5.2Zm13.852,0a5.054,5.054,0,0,1-.809,2.83A5.3,5.3,0,0,1,17.7-.451a8.644,8.644,0,0,1-3.574.686,14.46,14.46,0,0,1-2.871-.24A10.659,10.659,0,0,1,8.842-.844V-4.969A13.786,13.786,0,0,0,11.6-3.908a10.262,10.262,0,0,0,2.625.381,2.55,2.55,0,0,0,1.512-.357,1.1,1.1,0,0,0,.48-.92,1.012,1.012,0,0,0-.193-.615,2.252,2.252,0,0,0-.621-.533q-.428-.27-2.279-1.1a10.935,10.935,0,0,1-2.514-1.477,4.533,4.533,0,0,1-1.242-1.641,5.446,5.446,0,0,1-.4-2.191,4.392,4.392,0,0,1,1.723-3.691,7.593,7.593,0,0,1,4.734-1.324,13.285,13.285,0,0,1,5.426,1.23l-1.418,3.574a10.275,10.275,0,0,0-4.148-1.1,2.162,2.162,0,0,0-1.312.316.957.957,0,0,0-.41.785,1.134,1.134,0,0,0,.521.9,19.881,19.881,0,0,0,2.83,1.453A7.828,7.828,0,0,1,19.98-8.08,4.645,4.645,0,0,1,20.842-5.2Z" transform="translate(41 94)"/><path class="l" d="M-12.158-13.582a2.952,2.952,0,0,0-2.578,1.354A6.536,6.536,0,0,0-15.662-8.5q0,4.945,3.762,4.945a7.7,7.7,0,0,0,2.2-.316,22.042,22.042,0,0,0,2.145-.762V-.715A11.868,11.868,0,0,1-12.4.234a7.674,7.674,0,0,1-5.947-2.25q-2.068-2.25-2.068-6.5a10.376,10.376,0,0,1,1-4.676,7.169,7.169,0,0,1,2.883-3.1,8.706,8.706,0,0,1,4.424-1.084A12.187,12.187,0,0,1-6.8-16.172l-1.418,3.645a15.942,15.942,0,0,0-1.9-.75A6.635,6.635,0,0,0-12.158-13.582ZM6.99-5.2a5.054,5.054,0,0,1-.809,2.83A5.3,5.3,0,0,1,3.85-.451,8.644,8.644,0,0,1,.275.234,14.46,14.46,0,0,1-2.6-.006,10.659,10.659,0,0,1-5.01-.844V-4.969A13.786,13.786,0,0,0-2.256-3.908a10.262,10.262,0,0,0,2.625.381,2.55,2.55,0,0,0,1.512-.357,1.1,1.1,0,0,0,.48-.92,1.012,1.012,0,0,0-.193-.615,2.252,2.252,0,0,0-.621-.533q-.428-.27-2.279-1.1A10.935,10.935,0,0,1-3.246-8.531a4.533,4.533,0,0,1-1.242-1.641,5.446,5.446,0,0,1-.4-2.191A4.392,4.392,0,0,1-3.17-16.055a7.593,7.593,0,0,1,4.734-1.324,13.285,13.285,0,0,1,5.426,1.23L5.572-12.574a10.275,10.275,0,0,0-4.148-1.1,2.162,2.162,0,0,0-1.312.316.957.957,0,0,0-.41.785,1.134,1.134,0,0,0,.521.9,19.881,19.881,0,0,0,2.83,1.453A7.828,7.828,0,0,1,6.129-8.08,4.645,4.645,0,0,1,6.99-5.2Zm13.852,0a5.054,5.054,0,0,1-.809,2.83A5.3,5.3,0,0,1,17.7-.451a8.644,8.644,0,0,1-3.574.686,14.46,14.46,0,0,1-2.871-.24A10.659,10.659,0,0,1,8.842-.844V-4.969A13.786,13.786,0,0,0,11.6-3.908a10.262,10.262,0,0,0,2.625.381,2.55,2.55,0,0,0,1.512-.357,1.1,1.1,0,0,0,.48-.92,1.012,1.012,0,0,0-.193-.615,2.252,2.252,0,0,0-.621-.533q-.428-.27-2.279-1.1a10.935,10.935,0,0,1-2.514-1.477,4.533,4.533,0,0,1-1.242-1.641,5.446,5.446,0,0,1-.4-2.191,4.392,4.392,0,0,1,1.723-3.691,7.593,7.593,0,0,1,4.734-1.324,13.285,13.285,0,0,1,5.426,1.23l-1.418,3.574a10.275,10.275,0,0,0-4.148-1.1,2.162,2.162,0,0,0-1.312.316.957.957,0,0,0-.41.785,1.134,1.134,0,0,0,.521.9,19.881,19.881,0,0,0,2.83,1.453A7.828,7.828,0,0,1,19.98-8.08,4.645,4.645,0,0,1,20.842-5.2Z" transform="translate(40 93)"/><g transform="translate(9.5 31.5)"><line class="m" y1="30" x2="30"/><line class="m" x1="31" y1="30" transform="translate(30)"/></g><path class="n" d="M0,16a10.014,10.014,0,0,1,9-9.95V0h2V7a1,1,0,0,1-1,1H9.962A8,8,0,1,0,18,16a1,1,0,1,1,2,0A10,10,0,1,1,0,16Z" transform="translate(30 9)"/><g class="h" transform="translate(32)"><path class="x" d="M 11.99999904632568 9 L 3.999998569488525 9 C 3.663048982620239 9 3.423006534576416 8.909598350524902 2.941400051116943 7.661934852600098 L 0.9582325220108032 1.712431788444519 C 0.9357674121856689 1.621079325675964 0.9411150813102722 1.53505802154541 1.02608859539032 1.422999978065491 C 1.208948612213135 1.181849956512451 1.627638578414917 1 1.999998569488525 1 L 13.99999904632568 1 C 14.54536533355713 1 15.073166847229 1.423927545547485 15.08718967437744 1.589521884918213 C 15.08696460723877 1.589551568031311 15.08577632904053 1.594649434089661 15.08169841766357 1.6041100025177 L 15.06480884552002 1.64330005645752 L 15.05131816864014 1.683769941329956 L 13.05131816864014 7.683770179748535 L 13.04825878143311 7.692949771881104 L 13.04537868499756 7.702179908752441 C 12.64047813415527 9 12.22383880615234 9 11.99999904632568 9 Z"/><path class="z" d="M 2.108188629150391 2 L 3.882673263549805 7.323454856872559 C 4.021650314331055 7.681747436523438 4.118200302124023 7.884889125823975 4.182963371276855 7.999999523162842 L 11.8500394821167 7.999980449676514 C 11.90563011169434 7.903129577636719 11.99161052703857 7.722161769866943 12.09075927734375 7.404359817504883 L 12.09651851654053 7.385890007019043 L 12.10262870788574 7.367539882659912 L 13.89180850982666 2 L 2.108188629150391 2 M 1.999999046325684 0 L 13.99999809265137 0 C 15.10456848144531 0 16.44378852844238 0.9705801010131836 15.99999904632568 2 L 13.99999809265137 8 C 13.64867877960205 9.126099586486816 13.10456848144531 10 11.99999809265137 10 L 3.999999046325684 10 C 2.895428657531738 10 2.441588401794434 9.149290084838867 1.999999046325684 8 L -1.9073486328125e-06 2 C -0.3236713409423828 0.8449697494506836 0.8954286575317383 0 1.999999046325684 0 Z"/></g></g><g transform="translate(285 4.39)"><rect class="o" width="4" height="29" transform="translate(1 1)"/><path class="p" d="M6,31H0V0H6V31ZM2,2V29H4V2Z" transform="translate(0 0)"/></g><g transform="translate(46 62.188)"><g class="q"><circle class="x" cx="12" cy="12" r="12"/><circle class="a" cx="12" cy="12" r="11"/></g><g class="q" transform="translate(0 30)"><circle class="x" cx="12" cy="12" r="12"/><circle class="a" cx="12" cy="12" r="11"/></g><g class="r" transform="translate(0 60)"><circle class="x" cx="12" cy="12" r="12"/><circle class="a" cx="12" cy="12" r="11"/></g><path class="s" d="M4,9V6H1A1,1,0,0,1,1,4H4V1A1,1,0,0,1,6,1V4H9A1,1,0,0,1,9,6H6V9A1,1,0,0,1,4,9Z" transform="translate(7 7)"/><path class="s" d="M5.5,10h-1A.5.5,0,0,1,4,9.5V8.874a3.989,3.989,0,0,1-1.031-.427l-.443.443a.5.5,0,0,1-.707,0l-.707-.707a.5.5,0,0,1,0-.707l.442-.442A3.984,3.984,0,0,1,1.126,6H.5A.5.5,0,0,1,0,5.5v-1A.5.5,0,0,1,.5,4h.625a3.993,3.993,0,0,1,.428-1.031l-.442-.443a.5.5,0,0,1,0-.707l.707-.707a.5.5,0,0,1,.707,0l.443.442A3.993,3.993,0,0,1,4,1.126V.5A.5.5,0,0,1,4.5,0h1A.5.5,0,0,1,6,.5v.625a3.984,3.984,0,0,1,1.032.428l.443-.443a.5.5,0,0,1,.707,0l.707.707a.5.5,0,0,1,0,.707l-.444.444A3.969,3.969,0,0,1,8.874,4H9.5a.5.5,0,0,1,.5.5v1a.5.5,0,0,1-.5.5H8.874a3.989,3.989,0,0,1-.427,1.031l.444.444a.5.5,0,0,1,0,.707l-.707.707a.5.5,0,0,1-.707,0l-.444-.444A3.989,3.989,0,0,1,6,8.874V9.5A.5.5,0,0,1,5.5,10ZM5,3A2,2,0,1,0,7,5,2,2,0,0,0,5,3Z" transform="translate(7 37)"/><path class="t" d="M0,7A3,3,0,0,1,.171,6H.156L.24,5.823q.046-.108.1-.212L3,0,5.638,5.57a2.987,2.987,0,0,1,.141.3L5.842,6H5.83A3,3,0,1,1,0,7Z" transform="translate(10 68)"/><g transform="translate(9 67)"><circle class="e" cx="3" cy="3" r="3" transform="translate(0 4)"/><path class="e" d="M3,0,5.842,6H.156Z"/></g></g><rect class="u" width="114" height="111" rx="5" transform="translate(92 61.134)"/><g class="g" transform="translate(102 87.126)"><path class="x" d="M 37.50030136108398 74.00060272216797 C 32.57236099243164 74.00060272216797 27.79235076904297 73.03567504882812 23.29306030273438 71.13262939453125 C 18.94676208496094 69.29430389404297 15.04316139221191 66.662353515625 11.69071102142334 63.30989074707031 C 8.338251113891602 59.95744323730469 5.706301212310791 56.05384063720703 3.867971181869507 51.70754241943359 C 1.96493124961853 47.208251953125 1.000001192092896 42.42824172973633 1.000001192092896 37.50030136108398 C 1.000001192092896 32.57236099243164 1.96493124961853 27.79235076904297 3.867971181869507 23.29306221008301 C 5.706301212310791 18.94676208496094 8.338251113891602 15.04316139221191 11.69071102142334 11.69071102142334 C 15.04316139221191 8.338251113891602 18.94676208496094 5.706301212310791 23.29306030273438 3.867971420288086 C 27.63994026184082 2.029395818710327 32.24862289428711 1.066454529762268 36.99980163574219 1.003325700759888 L 36.99980163574219 36.99990081787109 L 36.99980163574219 37.99990081787109 L 37.99980163574219 37.99990081787109 L 73.99639129638672 37.99990081787109 C 73.93337249755859 42.75141525268555 72.97047424316406 47.36040878295898 71.13185882568359 51.70755004882812 C 69.29360961914062 56.05385971069336 66.66175842285156 59.95745086669922 63.30943298339844 63.30990982055664 C 59.95708084106445 66.66236114501953 56.05359268188477 69.29430389404297 51.70738983154297 71.13262939453125 C 47.20819091796875 73.03568267822266 42.42824172973633 74.00060272216797 37.50030136108398 74.00060272216797 Z"/><path class="y" d="M 37.50030517578125 73.00060272216797 C 42.29368591308594 73.00060272216797 46.94256210327148 72.062255859375 51.31782913208008 70.21163177490234 C 55.54481887817383 68.42372131347656 59.34147262573242 65.86374664306641 62.60231781005859 62.60281372070312 C 65.86312866210938 59.34188079833984 68.42300415039062 55.54512405395508 70.21085357666016 51.31801223754883 C 71.86780548095703 47.40037155151367 72.79339599609375 43.26350784301758 72.96892547607422 38.99990081787109 L 37.99980545043945 38.99990081787109 L 35.99980545043945 38.99990081787109 L 35.99980545043945 36.99990081787109 L 35.99980545043945 2.030822277069092 C 31.73651695251465 2.206446886062622 27.59999084472656 3.13206148147583 23.68260765075684 4.788979053497314 C 19.45549583435059 6.576901435852051 15.65874004364014 9.136878967285156 12.39781761169434 12.39781284332275 C 9.136873245239258 15.65874576568604 6.576895713806152 19.45550155639648 4.788984775543213 23.68261337280273 C 2.938351154327393 28.05799102783203 2.000006675720215 32.70692443847656 2.000006675720215 37.50030136108398 C 2.000006675720215 42.29367828369141 2.938351154327393 46.94261169433594 4.788984775543213 51.31798934936523 C 6.576895713806152 55.54510116577148 9.136873245239258 59.34185791015625 12.39781761169434 62.60279083251953 C 15.65876197814941 65.86372375488281 19.45550727844238 68.42371368408203 23.68260765075684 70.21162414550781 C 28.05798530578613 72.062255859375 32.70692825317383 73.00060272216797 37.50030517578125 73.00060272216797 M 37.50030517578125 75.00060272216797 C 32.43781661987305 75.00060272216797 27.52674102783203 74.00910186767578 22.90350723266602 72.05363464355469 C 18.43799591064453 70.16487884521484 14.42756271362305 67.46096038818359 10.98360633850098 64.01699829101562 C 7.539639949798584 60.57304763793945 4.835717678070068 56.56260299682617 2.946973562240601 52.09709167480469 C 0.9915067553520203 47.47385787963867 6.782362106605433e-06 42.56278991699219 6.782362106605433e-06 37.50030136108398 C 6.782362106605433e-06 32.43781280517578 0.9915067553520203 27.52674674987793 2.946973562240601 22.90351295471191 C 4.835717678070068 18.43800163269043 7.539639949798584 14.42755699157715 10.98360633850098 10.98360157012939 C 14.42756271362305 7.539634704589844 18.43799591064453 4.835723400115967 22.90350723266602 2.946968078613281 C 27.52674102783203 0.9915013313293457 32.43781661987305 1.361083945994324e-06 37.50030517578125 1.361083945994324e-06 C 37.66716384887695 1.361083945994324e-06 37.83346176147461 0.001101361121982336 37.99980545043945 0.003268027678132057 L 37.99980545043945 36.99990081787109 L 74.99641418457031 36.99990081787109 C 74.99858093261719 37.16625595092773 74.99971008300781 37.33344650268555 74.99971008300781 37.50030136108398 C 74.99971008300781 42.56282424926758 74.00823974609375 47.4738883972168 72.05287170410156 52.09709167480469 C 70.16419219970703 56.5626106262207 67.46038818359375 60.57304763793945 64.01654815673828 64.01699829101562 C 60.57269668579102 67.46096038818359 56.56237411499023 70.16487884521484 52.09695053100586 72.05363464355469 C 47.47381973266602 74.00910186767578 42.56278610229492 75.00060272216797 37.50030517578125 75.00060272216797 Z"/></g><path class="i" d="M37,37H0V0A37.236,37.236,0,0,1,14.421,3.082,37.38,37.38,0,0,1,26.18,11.145,37.378,37.378,0,0,1,34.1,23.009,37.257,37.257,0,0,1,37,37Z" transform="translate(152 80.206)"/><path class="v" d="M37,37H0V0A37.236,37.236,0,0,1,14.421,3.082,37.38,37.38,0,0,1,26.18,11.145,37.378,37.378,0,0,1,34.1,23.009,37.257,37.257,0,0,1,37,37Z" transform="translate(150 78.21)"/><g transform="translate(77.697 41.719) rotate(-60)"><g transform="matrix(0.927, 0.375, -0.375, 0.927, 24.698, 0.634)"><path class="k" d="M9.157,64.1v-.966c-1.794-1.625-3.663-4.875-3.663-6.359V31.762C2.21,30.207,0,27.3,0,23.974s2.21-8.852,5.495-12.132V5a5,5,0,0,1,5-5h.988a5,5,0,0,1,5,5v6.843c3.284,3.28,5.494,8.8,5.494,12.131s-2.211,6.234-5.5,7.788v25.01c0,1.484-1.868,4.733-3.662,6.359V64.1a1.832,1.832,0,1,1-3.663,0Z" transform="translate(0 0)"/></g><g transform="matrix(0.927, 0.375, -0.375, 0.927, 27.796, 0)"><g class="g" transform="translate(5.494 21.977)"><path class="x" d="M 5.494500160217285 42.95330047607422 C 5.036009788513184 42.95330047607422 4.663000106811523 42.58029174804688 4.663000106811523 42.12179946899414 L 4.663000106811523 41.15573120117188 L 4.663000106811523 40.71232986450195 L 4.334390163421631 40.41463088989258 C 3.565500020980835 39.71805953979492 2.702280044555664 38.6001091003418 2.025269985198975 37.42412185668945 C 1.268509984016418 36.10961151123047 1 35.18719100952148 1 34.79669952392578 L 1 3.663000345230103 C 1 2.194620132446289 2.194620132446289 1.000000238418579 3.663000106811523 1.000000238418579 L 7.326000213623047 1.000000238418579 C 8.793889999389648 1.000000238418579 9.988100051879883 2.194620132446289 9.988100051879883 3.663000345230103 L 9.988100051879883 34.79669952392578 C 9.988100051879883 35.18712997436523 9.719650268554688 36.10943984985352 8.963069915771484 37.42382049560547 C 8.286250114440918 38.59965133666992 7.423220157623291 39.71755981445312 6.65447998046875 40.41424942016602 L 6.326000213623047 40.71192932128906 L 6.326000213623047 41.15523147583008 L 6.326000213623047 42.12179946899414 C 6.326000213623047 42.58029174804688 5.952990055084229 42.95330047607422 5.494500160217285 42.95330047607422 Z"/><path class="z" d="M 5.494313716888428 40.11610412597656 L 5.982950210571289 39.67327117919922 C 6.66627025604248 39.05398941040039 7.445950031280518 38.04457092285156 8.068570137023926 36.97304916381836 C 8.799960136413574 35.71437072753906 8.982040405273438 34.95800018310547 8.988100051879883 34.79669952392578 L 8.988100051879883 3.663000345230103 C 8.988100051879883 2.746020317077637 8.242489814758301 2.000000238418579 7.326000213623047 2.000000238418579 L 3.663000106811523 2.000000238418579 C 2.746020078659058 2.000000238418579 2 2.746020317077637 2 3.663000345230103 L 1.999940037727356 34.79227066040039 C 2.006070137023926 34.95803070068359 2.188199996948242 35.71451950073242 2.919749975204468 36.97332000732422 C 3.542540073394775 38.04497146606445 4.322360038757324 39.05438995361328 5.005780220031738 39.67353057861328 L 5.494313716888428 40.11610412597656 M 5.494500160217285 43.95330047607422 C 4.482900142669678 43.95330047607422 3.663000106811523 43.13339996337891 3.663000106811523 42.12179946899414 L 3.663000106811523 41.15573120117188 C 1.868659973144531 39.53017044067383 2.593993997379584e-08 36.28047180175781 2.593993997379584e-08 34.79669952392578 L 2.593993997379584e-08 3.663000345230103 C 2.593993997379584e-08 1.639800190925598 1.639800071716309 2.380371029175876e-07 3.663000106811523 2.380371029175876e-07 L 7.326000213623047 2.380371029175876e-07 C 9.348299980163574 2.380371029175876e-07 10.98810005187988 1.639800190925598 10.98810005187988 3.663000345230103 L 10.98810005187988 34.79669952392578 C 10.98810005187988 36.28034973144531 9.119850158691406 39.5295295715332 7.326000213623047 41.15523147583008 L 7.326000213623047 42.12179946899414 C 7.326000213623047 43.13339996337891 6.505199909210205 43.95330047607422 5.494500160217285 43.95330047607422 Z"/></g><g class="w" transform="translate(0 0)"><path class="x" d="M 10.98810005187988 31.96520042419434 C 5.480640411376953 31.96520042419434 1.000000238418579 28.38045120239258 1.000000238418579 23.97420120239258 C 1.000000238418579 22.44771194458008 1.521970152854919 20.37609100341797 2.432070255279541 18.29053115844727 C 3.417760133743286 16.03174209594727 4.756330013275146 13.99295139312744 6.201210021972656 12.54971122741699 L 6.494500160217285 12.25674152374268 L 6.494500160217285 11.84220123291016 L 6.494500160217285 5.000401020050049 C 6.494500160217285 2.794571161270142 8.288670539855957 1.000001192092896 10.49400043487549 1.000001192092896 L 11.48220062255859 1.000001192092896 C 13.68803024291992 1.000001192092896 15.48260021209717 2.794571161270142 15.48260021209717 5.000401020050049 L 15.48260021209717 11.84289073944092 L 15.48260021209717 12.25740146636963 L 15.77585983276367 12.55036163330078 C 17.22069931030273 13.99372100830078 18.55925941467285 16.032470703125 19.54496002197266 18.29106140136719 C 20.45510101318359 20.37652206420898 20.97710037231445 22.44795036315918 20.97710037231445 23.97420120239258 C 20.97710037231445 28.38045120239258 16.49604988098145 31.96520042419434 10.98810005187988 31.96520042419434 Z"/><path class="z" d="M 10.98810005187988 30.96520042419434 C 13.46281051635742 30.96520042419434 15.77257061004639 30.19049072265625 17.49188995361328 28.78377151489258 C 19.0944995880127 27.47254180908203 19.97710037231445 25.76447105407715 19.97710037231445 23.97420120239258 C 19.97710037231445 22.60108184814453 19.47293090820312 20.62607192993164 18.62844085693359 18.6910514831543 C 17.69160079956055 16.54441070556641 16.42753982543945 14.61486148834229 15.06910991668701 13.25783157348633 L 14.48260021209717 12.67192077636719 L 14.48260021209717 11.84289073944092 L 14.48260021209717 5.000401020050049 C 14.48260021209717 3.34597110748291 13.13663005828857 2.000001192092896 11.48220062255859 2.000001192092896 L 10.49400043487549 2.000001192092896 C 8.840069770812988 2.000001192092896 7.494500160217285 3.34597110748291 7.494500160217285 5.000401020050049 L 7.494500160217285 11.84220123291016 L 7.494500160217285 12.67129135131836 L 6.907910346984863 13.25721073150635 C 5.549479961395264 14.61411094665527 4.285429954528809 16.54368209838867 3.348600149154663 18.69048118591309 C 2.504150152206421 20.6256103515625 2.000000238418579 22.60083198547363 2.000000238418579 23.97420120239258 C 2.000000238418579 25.76456069946289 2.88247013092041 27.4726619720459 4.484850406646729 28.78384208679199 C 6.203920364379883 30.19051170349121 8.513480186462402 30.96520042419434 10.98810005187988 30.96520042419434 M 10.98810005187988 32.96520233154297 C 4.919400215148926 32.96520233154297 1.861572229699959e-07 28.93950080871582 1.861572229699959e-07 23.97420120239258 C 1.861572229699959e-07 20.64632034301758 2.209930181503296 15.12306118011475 5.494500160217285 11.84220123291016 L 5.494500160217285 5.000401020050049 C 5.494500160217285 2.238301277160645 7.732800006866455 1.165771436717478e-06 10.49400043487549 1.165771436717478e-06 L 11.48220062255859 1.165771436717478e-06 C 14.24429988861084 1.165771436717478e-06 16.48259925842285 2.238301277160645 16.48259925842285 5.000401020050049 L 16.48259925842285 11.84289073944092 C 19.76694107055664 15.12386131286621 21.97710037231445 20.64662170410156 21.97710037231445 23.97420120239258 C 21.97710037231445 28.93950080871582 17.05680084228516 32.96520233154297 10.98810005187988 32.96520233154297 Z"/></g></g><path class="k" d="M0,7A3,3,0,0,1,.171,6H.156L.24,5.823q.046-.108.1-.212L3,0,5.638,5.57a2.987,2.987,0,0,1,.141.3L5.842,6H5.83A3,3,0,1,1,0,7Z" transform="translate(8.858 66.415) rotate(31)"/><path class="k" d="M0,9.1A3.807,3.807,0,0,1,.227,7.8H.208l.112-.23q.062-.141.134-.276L4,0,7.518,7.242a3.84,3.84,0,0,1,.188.387l.083.172H7.773A3.805,3.805,0,0,1,8,9.1,3.951,3.951,0,0,1,4,13,3.95,3.95,0,0,1,0,9.1Z" transform="matrix(0.985, -0.174, 0.174, 0.985, 9.231, 72.455)"/><path class="l" d="M0,7A3,3,0,0,1,.171,6H.156L.24,5.823q.046-.108.1-.212L3,0,5.638,5.57a2.987,2.987,0,0,1,.141.3L5.842,6H5.83A3,3,0,1,1,0,7Z" transform="translate(9.563 64.67) rotate(48)"/><path class="l" d="M0,9.1A3.807,3.807,0,0,1,.227,7.8H.208l.112-.23q.062-.141.134-.276L4,0,7.518,7.242a3.84,3.84,0,0,1,.188.387l.083.172H7.773A3.805,3.805,0,0,1,8,9.1,3.951,3.951,0,0,1,4,13,3.95,3.95,0,0,1,0,9.1Z" transform="matrix(0.985, -0.174, 0.174, 0.985, 8.231, 70.455)"/></g></svg>